<svg xmlns="http://www.w3.org/2000/svg" viewBox="0 0 800 280" fill="none">
  <defs>
    <linearGradient id="bg" x1="0%" y1="0%" x2="100%" y2="100%">
      <stop offset="0%" style="stop-color:#0a0a0a;stop-opacity:1" />
      <stop offset="50%" style="stop-color:#1a1a2e;stop-opacity:1" />
      <stop offset="100%" style="stop-color:#0a0a0a;stop-opacity:1" />
    </linearGradient>
    <linearGradient id="gold" x1="0%" y1="0%" x2="100%" y2="0%">
      <stop offset="0%" style="stop-color:#F0B90B;stop-opacity:1" />
      <stop offset="50%" style="stop-color:#FCD535;stop-opacity:1" />
      <stop offset="100%" style="stop-color:#F0B90B;stop-opacity:1" />
    </linearGradient>
    <linearGradient id="glow" x1="0%" y1="0%" x2="0%" y2="100%">
      <stop offset="0%" style="stop-color:#F0B90B;stop-opacity:0.3" />
      <stop offset="100%" style="stop-color:#F0B90B;stop-opacity:0" />
    </linearGradient>
    <filter id="blur">
      <feGaussianBlur stdDeviation="2" />
    </filter>
    <filter id="glow-filter">
      <feGaussianBlur stdDeviation="3" result="blur" />
      <feMerge>
        <feMergeNode in="blur" />
        <feMergeNode in="SourceGraphic" />
      </feMerge>
    </filter>
  </defs>

  <!-- Background -->
  <rect width="800" height="280" rx="12" fill="url(#bg)" />

  <!-- Animated grid lines -->
  <g opacity="0.05" stroke="#F0B90B" stroke-width="0.5">
    <line x1="0" y1="40" x2="800" y2="40" />
    <line x1="0" y1="80" x2="800" y2="80" />
    <line x1="0" y1="120" x2="800" y2="120" />
    <line x1="0" y1="160" x2="800" y2="160" />
    <line x1="0" y1="200" x2="800" y2="200" />
    <line x1="0" y1="240" x2="800" y2="240" />
    <line x1="100" y1="0" x2="100" y2="280" />
    <line x1="200" y1="0" x2="200" y2="280" />
    <line x1="300" y1="0" x2="300" y2="280" />
    <line x1="400" y1="0" x2="400" y2="280" />
    <line x1="500" y1="0" x2="500" y2="280" />
    <line x1="600" y1="0" x2="600" y2="280" />
    <line x1="700" y1="0" x2="700" y2="280" />
  </g>

  <!-- BNB Diamond logo -->
  <g transform="translate(400, 75)" filter="url(#glow-filter)">
    <animateTransform attributeName="transform" type="translate" values="400,75;400,70;400,75" dur="3s" repeatCount="indefinite" additive="replace" />
    <polygon points="0,-35 35,0 0,35 -35,0" fill="url(#gold)" opacity="0.9">
      <animate attributeName="opacity" values="0.9;1;0.9" dur="2s" repeatCount="indefinite" />
    </polygon>
    <polygon points="0,-20 20,0 0,20 -20,0" fill="#0a0a0a" opacity="0.6" />
    <polygon points="0,-12 12,0 0,12 -12,0" fill="url(#gold)" opacity="0.5" />
  </g>

  <!-- Title text -->
  <text x="400" y="140" text-anchor="middle" font-family="'Segoe UI', 'SF Pro Display', system-ui, -apple-system, sans-serif" font-size="36" font-weight="800" fill="url(#gold)" letter-spacing="2">
    BNB Chain AI Toolkit
    <animate attributeName="opacity" values="0;1" dur="1s" fill="freeze" />
  </text>

  <!-- Subtitle -->
  <text x="400" y="170" text-anchor="middle" font-family="'Segoe UI', 'SF Pro Display', system-ui, -apple-system, sans-serif" font-size="14" fill="#888" letter-spacing="1">
    The Most Comprehensive AI Development Kit for BNB Chain
    <animate attributeName="opacity" values="0;1" dur="1.5s" fill="freeze" />
  </text>

  <!-- Stats bar -->
  <g transform="translate(0, 200)">
    <animate attributeName="opacity" values="0;1" dur="2s" fill="freeze" />

    <!-- Agents -->
    <g transform="translate(115, 0)">
      <rect x="-45" y="-12" width="90" height="42" rx="8" fill="#F0B90B" opacity="0.1" />
      <text x="0" y="8" text-anchor="middle" font-family="monospace" font-size="18" font-weight="bold" fill="#F0B90B">72+</text>
      <text x="0" y="24" text-anchor="middle" font-family="sans-serif" font-size="9" fill="#666">AI AGENTS</text>
    </g>

    <!-- MCP Servers -->
    <g transform="translate(265, 0)">
      <rect x="-55" y="-12" width="110" height="42" rx="8" fill="#7C3AED" opacity="0.1" />
      <text x="0" y="8" text-anchor="middle" font-family="monospace" font-size="18" font-weight="bold" fill="#7C3AED">6</text>
      <text x="0" y="24" text-anchor="middle" font-family="sans-serif" font-size="9" fill="#666">MCP SERVERS</text>
    </g>

    <!-- Tools -->
    <g transform="translate(400, 0)">
      <rect x="-45" y="-12" width="90" height="42" rx="8" fill="#00B4D8" opacity="0.1" />
      <text x="0" y="8" text-anchor="middle" font-family="monospace" font-size="18" font-weight="bold" fill="#00B4D8">900+</text>
      <text x="0" y="24" text-anchor="middle" font-family="sans-serif" font-size="9" fill="#666">TOOLS</text>
    </g>

    <!-- Chains -->
    <g transform="translate(535, 0)">
      <rect x="-45" y="-12" width="90" height="42" rx="8" fill="#22C55E" opacity="0.1" />
      <text x="0" y="8" text-anchor="middle" font-family="monospace" font-size="18" font-weight="bold" fill="#22C55E">60+</text>
      <text x="0" y="24" text-anchor="middle" font-family="sans-serif" font-size="9" fill="#666">CHAINS</text>
    </g>

    <!-- Languages -->
    <g transform="translate(685, 0)">
      <rect x="-55" y="-12" width="110" height="42" rx="8" fill="#FF6B6B" opacity="0.1" />
      <text x="0" y="8" text-anchor="middle" font-family="monospace" font-size="18" font-weight="bold" fill="#FF6B6B">30+</text>
      <text x="0" y="24" text-anchor="middle" font-family="sans-serif" font-size="9" fill="#666">LANGUAGES</text>
    </g>
  </g>

  <!-- Animated particles -->
  <circle cx="50" cy="50" r="1.5" fill="#F0B90B" opacity="0.4">
    <animate attributeName="cy" values="50;30;50" dur="4s" repeatCount="indefinite" />
    <animate attributeName="opacity" values="0.4;0.8;0.4" dur="4s" repeatCount="indefinite" />
  </circle>
  <circle cx="750" cy="60" r="1" fill="#F0B90B" opacity="0.3">
    <animate attributeName="cy" values="60;40;60" dur="3s" repeatCount="indefinite" />
    <animate attributeName="opacity" values="0.3;0.7;0.3" dur="3s" repeatCount="indefinite" />
  </circle>
  <circle cx="150" cy="250" r="1.5" fill="#7C3AED" opacity="0.3">
    <animate attributeName="cx" values="150;170;150" dur="5s" repeatCount="indefinite" />
  </circle>
  <circle cx="650" cy="240" r="1" fill="#00B4D8" opacity="0.3">
    <animate attributeName="cx" values="650;630;650" dur="4s" repeatCount="indefinite" />
  </circle>
  <circle cx="300" cy="30" r="1" fill="#22C55E" opacity="0.2">
    <animate attributeName="cy" values="30;20;30" dur="3.5s" repeatCount="indefinite" />
  </circle>
  <circle cx="500" cy="260" r="1.5" fill="#FF6B6B" opacity="0.2">
    <animate attributeName="cy" values="260;250;260" dur="2.5s" repeatCount="indefinite" />
  </circle>

  <!-- Bottom border glow -->
  <rect x="100" y="268" width="600" height="2" rx="1" fill="url(#gold)" opacity="0.3">
    <animate attributeName="opacity" values="0.3;0.6;0.3" dur="3s" repeatCount="indefinite" />
  </rect>
</svg>
